{
  "title": "Michael Jackson This Is It (2009) DVDRip XviD-MAX",
  "uid": 5226323,
  "size": 1464262435,
  "categoryP": "video",
  "categoryS": "movies",
  "magnet": "?xt=urn:btih:e783c21b080f0efd20e0d8a45d4dfdd51e9a1062&amp;dn=Michael+Jackson+This+Is+It+%282009%29+DVDRip+XviD-MAX&amp;tr=udp%3A%2F%2Ftracker.openbittorrent.com%3A80&amp;tr=udp%3A%2F%2Fopen.demonii.com%3A1337&amp;tr=udp%3A%2F%2Ftracker.coppersurfer.tk%3A6969&amp;tr=udp%3A%2F%2Fexodus.desync.com%3A6969",
  "seeders": 60,
  "leechers": 4,
  "uploader": "extremezone",
  "files": -1,
  "time": 1261096611,
  "description": "Michael Jackson This Is It (2009) DVDRip XviD-MAX\n\nFormat                           : AVI\nFormat/Info                      : Audio Video Interleave\nFile size                        : 1.36 GiB\nDuration                         : 1h 51mn\nOverall bit rate                 : 1 750 Kbps\nWriting application              : VirtualDubMod 1.5.10.2 (build 2542/release)\nWriting library                  : VirtualDubMod build 2542/release\nOriginal source form             : MAX TORRENTZ\nCopyright                        : SIGISMUNT\n\nVideo\nID                               : 0\nFormat                           : MPEG-4 Visual\nFormat profile                   : AdvancedSimple@L5\nFormat settings, BVOP            : Yes\nFormat settings, QPel            : No\nFormat settings, GMC             : No warppoints\nFormat settings, Matrix          : Default (MPEG)\nMuxing mode                      : Packed bitstream\nCodec ID                         : XVID\nCodec ID/Hint                    : XviD\nDuration                         : 1h 51mn\nBit rate                         : 1 294 Kbps\nWidth                            : 640 pixels\nHeight                           : 352 pixels\nDisplay aspect ratio             : 16:9\nFrame rate                       : 23.976 fps\nResolution                       : 24 bits\nColorimetry                      : 4:2:0\nScan type                        : Progressive\nBits/(Pixel*Frame)               : 0.240\nStream size                      : 1.01 GiB (74%)\nWriting library                  : XviD 1.2.1 (UTC 2008-12-04)\n\nAudio\nID                               : 1\nFormat                           : AC-3\nFormat/Info                      : Audio Coding 3\nCodec ID                         : 2000\nDuration                         : 1h 51mn\nBit rate mode                    : Constant\nBit rate                         : 448 Kbps\nChannel(s)                       : 6 channels\nChannel positions                : Front: L C R, Surround: L R, LFE\nSampling rate                    : 48.0 KHz\nStream size                      : 357 MiB (26%)\nAlignment                        : Split accross interleaves\nInterleave, duration             : 42 ms (1.00 video frame)\nInterleave, preload duration     : 500 ms &lt;a href=&quot;\nhttp://www.imdb.com/title/tt1477715/&quot; rel=&quot;nofollow&quot; target=&quot;_NEW&quot;&gt;\nhttp://www.imdb.com/title/tt1477715/&lt;/a&gt;\n\nScreens: &lt;a href=&quot;\nhttp://www.postimg.com/image/10000/9019.jpg&quot; rel=&quot;nofollow&quot; target=&quot;_NEW&quot;&gt;\nhttp://www.postimg.com/image/10000/9019.jpg&lt;/a&gt;\nhttp://www.postimg.com/image/10000/9020.jpg\nhttp://www.postimg.com/image/10000/9021.jpg\nhttp://www.postimg.com/image/10000/9022.jpg\n\nScreensCaps: &lt;a href=&quot;\nhttp://www.postimg.com/image/10000/9023.jpg&quot; rel=&quot;nofollow&quot; target=&quot;_NEW&quot;&gt;\nhttp://www.postimg.com/image/10000/9023.jpg&lt;/a&gt;\n\nMichael Jackson This Is It (2009) DVDRip XviD-MAX Torrent Free Download &lt;a href=&quot;\nhttp://thepiratebay.se/user/extremezone/0/7&quot; rel=&quot;nofollow&quot; target=&quot;_NEW&quot;&gt;\nhttp://thepiratebay.se/user/extremezone/0/7&lt;/a&gt;",
  "parsed": {
    "xt": "urn:btih:e783c21b080f0efd20e0d8a45d4dfdd51e9a1062",
    "dn": "Michael Jackson This Is It (2009) DVDRip XviD-MAX",
    "tr": [
      "udp://exodus.desync.com:6969",
      "udp://open.demonii.com:1337",
      "udp://tracker.coppersurfer.tk:6969",
      "udp://tracker.openbittorrent.com:80"
    ],
    "infoHash": "e783c21b080f0efd20e0d8a45d4dfdd51e9a1062",
    "infoHashBuffer": {
      "type": "Buffer",
      "data": [
        231,
        131,
        194,
        27,
        8,
        15,
        14,
        253,
        32,
        224,
        216,
        164,
        93,
        77,
        253,
        213,
        30,
        154,
        16,
        98
      ]
    },
    "name": "Michael Jackson This Is It (2009) DVDRip XviD-MAX",
    "announce": [
      "udp://exodus.desync.com:6969",
      "udp://open.demonii.com:1337",
      "udp://tracker.coppersurfer.tk:6969",
      "udp://tracker.openbittorrent.com:80"
    ],
    "urlList": []
  },
  "previous": 64,
  "peers": 37,
  "last_updated": "2016-12-25T16:51:26.872Z"
}